<svg xmlns="http://www.w3.org/2000/svg" width="24px" height="24px" viewBox="0 0 24 24">
    <path fill="#0284c7" d="M15.5,2C13,2 11,4 11,6.5C11,7.38 11.25,8.2 11.69,8.87L10.11,13.07C9.13,13.47 8.40093,14.3082 8.13,15.35H7.65C7.24,14.55 6.46,14 5.5,14C4.12,14 3,15.12 3,16.5C3,17.88 4.12,19 5.5,19C6.46,19 7.24,18.45 7.65,17.65H8.13C8.47,18.91 9.5,19.87 10.87,19.98L11.12,21.5H12.87L13.12,19.98C14.5,19.86 15.53,18.9 15.87,17.64H16.35C16.76,18.44 17.54,19 18.5,19C19.88,19 21,17.88 21,16.5C21,15.12 19.88,14 18.5,14C17.54,14 16.76,14.55 16.35,15.35H15.87C15.59945,14.308 14.87,13.47 13.89,13.07L12.31,8.87C12.75,8.2 13,7.38 13,6.5C13,4 11,2 8.5,2M8.5,4C9.88,4 11,5.12 11,6.5C11,7.88 9.88,9 8.5,9C7.12,9 6,7.88 6,6.5C6,5.12 7.12,4 8.5,4M5.5,16C5.78,16 6,16.22 6,16.5C6,16.78 5.78,17 5.5,17C5.22,17 5,16.78 5,16.5C5,16.22 5.22,16 5.5,16M18.5,16C18.78,16 19,16.22 19,16.5C19,16.78 18.78,17 18.5,17C18.22,17 18,16.78 18,16.5C18,16.22 18.22,16 18.5,16Z"/>
</svg>